<?xml version="1.0" encoding="UTF-8" standalone="no"?>
<!-- Created with Inkscape (http://www.inkscape.org/) -->

<svg
   xmlns:dc="http://purl.org/dc/elements/1.1/"
   xmlns:cc="http://creativecommons.org/ns#"
   xmlns:rdf="http://www.w3.org/1999/02/22-rdf-syntax-ns#"
   xmlns:svg="http://www.w3.org/2000/svg"
   xmlns="http://www.w3.org/2000/svg"
   xmlns:sodipodi="http://sodipodi.sourceforge.net/DTD/sodipodi-0.dtd"
   xmlns:inkscape="http://www.inkscape.org/namespaces/inkscape"
   width="550"
   height="550"
   id="svg2856"
   version="1.1"
   inkscape:version="0.48.2 r9819"
   sodipodi:docname="eIRonly.svg">
  <defs
     id="defs2858">
    <inkscape:perspective
       sodipodi:type="inkscape:persp3d"
       inkscape:vp_x="0 : 526.18109 : 1"
       inkscape:vp_y="0 : 1000 : 0"
       inkscape:vp_z="744.09448 : 526.18109 : 1"
       inkscape:persp3d-origin="372.04724 : 350.78739 : 1"
       id="perspective2864" />
    <inkscape:perspective
       id="perspective2851"
       inkscape:persp3d-origin="0.5 : 0.33333333 : 1"
       inkscape:vp_z="1 : 0.5 : 1"
       inkscape:vp_y="0 : 1000 : 0"
       inkscape:vp_x="0 : 0.5 : 1"
       sodipodi:type="inkscape:persp3d" />
    <inkscape:perspective
       id="perspective2883"
       inkscape:persp3d-origin="0.5 : 0.33333333 : 1"
       inkscape:vp_z="1 : 0.5 : 1"
       inkscape:vp_y="0 : 1000 : 0"
       inkscape:vp_x="0 : 0.5 : 1"
       sodipodi:type="inkscape:persp3d" />
  </defs>
  <sodipodi:namedview
     id="base"
     pagecolor="#ffffff"
     bordercolor="#666666"
     borderopacity="1.0"
     inkscape:pageopacity="0.0"
     inkscape:pageshadow="2"
     inkscape:zoom="0.65384615"
     inkscape:cx="124.70588"
     inkscape:cy="404.49301"
     inkscape:document-units="px"
     inkscape:current-layer="layer1"
     showgrid="false"
     inkscape:window-width="1600"
     inkscape:window-height="829"
     inkscape:window-x="1276"
     inkscape:window-y="-4"
     inkscape:window-maximized="1" />
  <metadata
     id="metadata2861">
    <rdf:RDF>
      <cc:Work
         rdf:about="">
        <dc:format>image/svg+xml</dc:format>
        <dc:type
           rdf:resource="http://purl.org/dc/dcmitype/StillImage" />
        <dc:title />
      </cc:Work>
    </rdf:RDF>
  </metadata>
  <g
     inkscape:label="Layer 1"
     inkscape:groupmode="layer"
     id="layer1"
     transform="translate(0,-502.36218)">
    <g
       id="g3085">
      <rect
         y="507.36218"
         x="5"
         height="540"
         width="540"
         id="rect2824"
         style="fill:#000000;fill-opacity:0;stroke:none" />
      <path
         transform="matrix(0.92857143,0,0,0.9252669,-124.28571,282.00928)"
         d="m 710,535.36218 a 280,281 0 1 1 -560,0 280,281 0 1 1 560,0 z"
         sodipodi:ry="281"
         sodipodi:rx="280"
         sodipodi:cy="535.36218"
         sodipodi:cx="430"
         id="path2819"
         style="fill:#f8f8f8;fill-opacity:1;stroke:#000000;stroke-opacity:1"
         sodipodi:type="arc" />
      <path
         sodipodi:open="true"
         sodipodi:end="5.4977871"
         sodipodi:start="0.78539816"
         transform="translate(-105,392.36218)"
         d="m 535.56349,540.56349 a 220,220 0 1 1 0,-311.12699"
         sodipodi:ry="220"
         sodipodi:rx="220"
         sodipodi:cy="385"
         sodipodi:cx="380"
         id="path3600"
         style="fill:none;stroke:#ff0101;stroke-width:50;stroke-miterlimit:4;stroke-opacity:1;stroke-dasharray:none"
         sodipodi:type="arc" />
      <path
         id="path3604"
         d="m 65,777.36218 310,0"
         style="fill:none;stroke:#ff0101;stroke-width:50;stroke-linecap:butt;stroke-linejoin:miter;stroke-miterlimit:4;stroke-opacity:1;stroke-dasharray:none"
         inkscape:connector-curvature="0" />
      <g
         id="text3669"
         style="font-size:265.08444214px;font-style:normal;font-variant:normal;font-weight:normal;font-stretch:normal;text-align:start;line-height:125%;writing-mode:lr-tb;text-anchor:start;fill:#404040;fill-opacity:1;stroke:none;font-family:OCR A Extended;-inkscape-font-specification:OCR A Extended">
        <path
           id="path3081"
           style=""
           d="m 193.74348,701.8686 88.01632,0 c 2.84746,1.8e-4 5.37146,1.07881 7.57199,3.2359 2.20028,2.15743 3.30048,4.703 3.30062,7.63671 -1.4e-4,3.02032 -1.07877,5.63061 -3.2359,7.83086 -2.15739,2.20056 -4.70296,3.30076 -7.63671,3.30061 l -32.87668,0 0,128.27084 32.87668,0 c 3.02004,3e-5 5.58718,1.05708 7.70143,3.17118 2.11398,2.11413 3.17104,4.68127 3.17118,7.70143 -1.4e-4,3.02017 -1.07877,5.58731 -3.2359,7.70143 -2.15739,2.11412 -4.70296,3.17117 -7.63671,3.17117 l -88.01632,0 c -3.0202,0 -5.58734,-1.05705 -7.70142,-3.17117 -2.11415,-2.11412 -3.17121,-4.68126 -3.17118,-7.70143 -3e-5,-3.02016 1.05703,-5.5873 3.17118,-7.70143 2.11408,-2.1141 4.68122,-3.17115 7.70142,-3.17118 l 33.39443,0 0,-128.27084 -33.39443,0 c -3.0202,1.5e-4 -5.58734,-1.07848 -7.70142,-3.23589 -2.11415,-2.15711 -3.17121,-4.70267 -3.17118,-7.63671 -3e-5,-3.10629 1.05703,-5.73815 3.17118,-7.89558 2.11408,-2.15709 4.68122,-3.23572 7.70142,-3.2359 z" />
        <path
           id="path3083"
           style=""
           d="m 343.37123,863.01613 0,-161.14753 76.88484,0 c 8.88781,1.8e-4 16.54608,3.23607 22.97485,9.70769 6.42851,6.47194 9.64283,14.19493 9.64296,23.169 l 0,12.42583 c -1.3e-4,9.06062 -3.19288,16.80519 -9.57824,23.23372 -6.38562,6.42874 -14.06547,9.64306 -23.03957,9.64296 l -13.84963,0 44.52591,76.3671 c 1.38051,2.24357 2.07083,4.48712 2.07097,6.73066 -1.4e-4,2.93389 -1.12191,5.45788 -3.36533,7.572 -2.24369,2.11412 -4.78925,3.17117 -7.63671,3.17117 -4.31465,0 -7.59368,-1.94153 -9.83712,-5.82461 l -51.12713,-88.01632 -15.66172,0 0,82.96833 c -5e-5,3.02017 -1.10026,5.58731 -3.30062,7.70143 -2.20045,2.11412 -4.81073,3.17117 -7.83086,3.17117 -3.0202,0 -5.58734,-1.05705 -7.70143,-3.17117 -2.11414,-2.11412 -3.1712,-4.68126 -3.17117,-7.70143 z m 21.74521,-104.71353 55.13963,0 c 3.02006,1.1e-4 5.5872,-1.05695 7.70143,-3.17118 2.114,-2.114 3.17106,-4.68114 3.17117,-7.70143 l 0,-12.6847 c -1.1e-4,-3.02003 -1.05717,-5.58717 -3.17117,-7.70143 -2.11423,-2.11397 -4.68137,-3.17103 -7.70143,-3.17118 l -55.13963,0 z" />
      </g>
      <g
         transform="translate(-135,255)"
         id="g3873">
        <text
           xml:space="preserve"
           style="font-size:32px;font-style:normal;font-weight:normal;fill:#000000;fill-opacity:1;stroke:none;font-family:DejaVu Sans;-inkscape-font-specification:DejaVu Sans"
           x="568"
           y="662.36218"
           id="text2820"><tspan
             sodipodi:role="line"
             id="tspan2822"
             x="568"
             y="662.36218">TM</tspan></text>
      </g>
    </g>
  </g>
</svg>
