<?xml version="1.0" encoding="utf-8"?>
<!-- Generator: Adobe Illustrator 15.1.0, SVG Export Plug-In . SVG Version: 6.00 Build 0)  -->
<!DOCTYPE svg PUBLIC "-//W3C//DTD SVG 1.1//EN" "http://www.w3.org/Graphics/SVG/1.1/DTD/svg11.dtd">
<svg version="1.1" id="Layer_1" xmlns="http://www.w3.org/2000/svg" xmlns:xlink="http://www.w3.org/1999/xlink" x="0px" y="0px"
	 width="612px" height="792px" viewBox="0 0 612 792" enable-background="new 0 0 612 792" xml:space="preserve">
<g>
	<path fill="#D51F27" d="M415.818,289.766c-110.141-20.311-188.487-13.842-260.51,11.881c-11.284-0.105-5.932-0.311-26.928-0.105
		c-2.059,8.646,0.823-3.705-2.453,11.772c-22.236,9.7-44.193,21.199-66.662,34.263C145.832,255.525,313.404,240.445,415.818,289.766
		z"/>
	<g>
		<path d="M177.752,304.935l-2.568,12.125h-28.527l-1.92,9h27.516l-2.527,11.375h-27.418l-2.348,11h30.918l-2.766,12.875h-48.359
			l12.035-56.375H177.752z"/>
		<path d="M222.685,334.666l-14.125,0.77c-0.674-3.582-3.094-5.375-7.258-5.375c-3.855,0-6.818,1.559-8.889,4.672
			c-2.07,3.115-3.104,6.508-3.104,10.178c0,2.223,0.736,3.93,2.211,5.117c1.475,1.189,3.066,1.783,4.773,1.783
			c4.215,0,7.346-2.332,9.391-7l14.625,1.576c-3.623,10.617-11.832,15.924-24.629,15.924c-14.414,0-21.621-5.893-21.621-17.678
			c0-6.855,2.377-12.748,7.133-17.678s11.453-7.395,20.092-7.395c6.195,0,11.143,1.264,14.846,3.787
			C219.831,325.871,222.017,329.644,222.685,334.666z"/>
		<path d="M248.534,304.935l-12.035,56.375h-15.727l12.035-56.375H248.534z"/>
		<path d="M267.511,320.435l-8.727,40.875h-15.727l8.729-40.875H267.511z M270.82,304.935l-2.293,10.75H252.8l2.293-10.75H270.82z"
			/>
		<path d="M287.417,324.761c2.225-2.055,4.219-3.434,5.984-4.141s3.889-1.061,6.371-1.061c4.578,0,8.09,1.525,10.533,4.576
			c2.441,3.051,3.664,7.164,3.664,12.34c0,6.92-1.84,12.955-5.516,18.107c-3.678,5.152-8.322,7.727-13.932,7.727
			c-5.715,0-10.033-2.137-12.953-6.414l-4.531,20.914h-15.693l12.148-56.375h14.543l-0.773,4.17L287.417,324.761z M290.353,351.81
			c2.287,0,4.254-1.451,5.898-4.354s2.469-6.42,2.469-10.557c0-2.516-0.527-4.326-1.582-5.432s-2.313-1.658-3.777-1.658
			c-2.906,0-5.137,1.625-6.691,4.875s-2.332,6.568-2.332,9.959c0,2.414,0.609,4.213,1.832,5.395
			C287.39,351.22,288.784,351.81,290.353,351.81z"/>
		<path d="M359.058,330.236l-14.625,1.574c-0.441-2.416-2.291-3.625-5.551-3.625c-1.916,0-3.365,0.348-4.35,1.039
			c-0.984,0.693-1.475,1.502-1.475,2.424c0,0.949,0.43,1.738,1.291,2.367s3.168,1.211,6.922,1.748
			c6.039,0.898,10.057,2.252,12.049,4.061s2.988,4.225,2.988,7.252c0,4.207-1.949,7.797-5.844,10.771
			c-3.896,2.977-9.83,4.463-17.799,4.463c-6.512,0-11.279-0.953-14.303-2.855c-3.023-1.904-4.793-5.043-5.305-9.418l15.5-1.352
			c0.662,3.334,2.828,5,6.5,5c1.707,0,3.219-0.371,4.531-1.117c1.313-0.744,1.969-1.811,1.969-3.197
			c0-1.258-0.475-2.104-1.424-2.541c-0.949-0.436-2.742-0.859-5.381-1.271c-6.074-0.949-10.189-2.389-12.342-4.314
			s-3.229-4.352-3.229-7.279c0-2.387,0.807-4.725,2.424-7.01s4.061-4.088,7.332-5.41s7.295-1.984,12.068-1.984
			c5.465,0,9.652,0.801,12.566,2.4C356.485,323.562,358.313,326.32,359.058,330.236z"/>
		<path d="M405.098,350.861c-2.287,4.063-5.273,6.986-8.961,8.771c-3.688,1.783-8.305,2.678-13.852,2.678
			c-8.068,0-13.805-1.816-17.207-5.449c-3.404-3.633-5.105-8.08-5.105-13.346c0-3.645,0.797-7.078,2.391-10.301
			s3.752-5.924,6.479-8.107c2.725-2.184,5.41-3.652,8.059-4.41s5.746-1.137,9.295-1.137c7.635,0,13.111,1.656,16.428,4.967
			c3.316,3.313,4.975,7.381,4.975,12.207c0,1.592-0.35,4.326-1.045,8.201h-31.33c0.438,5.5,2.895,8.25,7.371,8.25
			c3.035,0,5.453-1.25,7.254-3.75L405.098,350.861z M392.074,337.31c0.182-0.563,0.273-1.342,0.273-2.338
			c0-2.07-0.633-3.635-1.895-4.695c-1.264-1.061-2.82-1.592-4.668-1.592c-1.953,0-3.748,0.723-5.389,2.166
			c-1.641,1.445-2.891,3.598-3.75,6.459H392.074z"/>
	</g>
	<g>
		<path stroke="#000000" d="M443.952,311.564l-2.691,1.115l-0.924-0.115l-0.922,0.652l-0.539-0.191l-0.539,0.346l-1.037-0.191
			l-0.463,0.576l-0.615-0.27l-1.422,0.578l-0.461-0.348l-0.461,0.463l-2.654-0.27l-0.23,2.537l0.27,0.078l-0.693,0.998l0.385-0.037
			l-1.152,3.961l0.461-0.193l-0.154,1.846l-0.154,0.539l-0.73,1.652l-0.422,0.154l0.385,0.309l-0.5,3.191l-1.693,6.383l-0.576-0.039
			l-0.346,0.654l0.576-0.115l-0.27,1.73l-0.461,0.346l-0.385,2l-0.652,0.576l0.23,0.461l-0.961,1.846l-0.115,2l-0.848,1.691
			l0.115,0.73l-2.959,9.189l0.115,0.848l-0.385,0.537l0.307,0.654l2.307,0.461l0.117-0.385l1.652,0.309l0.73-0.154l0.809-0.307
			l3.922,0.115l2.383-0.193l1.078-0.691l1.498-0.039l0.348,0.615l-3.039,2.039l-3.537,0.961l-0.191,0.346l-3.961,0.652l-0.115,0.385
			l-1.461-0.463l-0.039,0.539l-4.152,0.346l-0.154,0.424l-0.424-0.039l-0.037-0.309l-0.463,0.348l-1.268-0.615l-0.115,0.615
			l-1.809-0.115l-0.807,0.346h-6.037l-0.654-0.461l0.578-1.383l0.615-0.193l0.576-1.23l0.922-1.076l0.654,0.076l0.309-0.383
			l-0.309-0.385l1.73-0.615l3.268,0.461l2.309-6.229l-0.115-0.539l0.461-0.23l0.039-0.77l0.422,0.076l1.77-5.844l0.076-2.154
			l0.73-1.422l0.193-1.691l0.385-0.463l-0.039-1.23l0.77-0.961l-0.578-0.191l0.115-1.076l0.309-0.115l1.037-4.691l-0.191-1h-0.27
			l0.115-2.076l0.654-0.193l-0.309-2.268l0.885-0.348l-0.73-0.652l0.309-1.039l0.691-0.385l-0.73-0.346l0.576-1.885l-0.346,0.039
			l0.039-1.27l-0.346,0.039l0.422-0.846l-0.307-1.922l0.615-0.385l-0.73-0.424l0.23-0.885l-1.193-0.883l-6.768-0.654l-1.037-0.961
			l0.115-0.539l3.576-2.346l0.576,0.078l0.77-0.654l8.574,1.23l0.461,0.5l0.463-0.578l3.422,0.539h10.998L443.952,311.564z"/>
		<path stroke="#000000" d="M497.852,351.324l-0.5,1.23l-0.924,3.691l-1.23,1.615l-1.27,0.846l0.539,0.152l-3.768,2.846l-1.77,0.307
			l-0.424,0.885l-0.846-0.424l-5.152,0.693l-2.73,0.037l-4.459-1.535l-2.961-1.885l-0.615,0.346l-1-0.961l-1.039-0.191l-1.768-1.5
			l-2.076-0.846l-1.385-1.115l-0.154-0.578l-1.537-0.768l-0.809-1.309h-0.846l-0.961-1.615l-2.424-1.73l0.039-0.537l-3.191-2.73
			l-0.23,0.576l-0.77,0.154l0.346,0.615l-0.768,1.039l0.346,0.883l-1.076,1.846l-0.348,1.615l-0.73,0.654l0.463,0.23l-2.154,5.037
			l-0.77-0.27l0.615,1l-0.385,1.576l-0.768,0.615l0.23,1.268l-0.693,1.154l-1.076,0.615l-2.422,0.23l-0.346-0.73l3.346-11.881
			l0.498-0.576l-0.346-0.076l0.73-1.539l-0.152-0.576l0.768-1.615l-0.461-0.615l0.885-1.039l0.654-1.768l-0.424-0.115l0.5-1.27
			l-2.191-2.152l0.422-1.77l2.809-0.5l0.115-0.346l0.461-0.039l0.615-1.615l-0.461-0.307l1.652-3.654l-0.422-0.037l0.5-2.654
			l0.537-0.385l1-5.189l0.309,0.037l-0.348-1.73l0.309-0.115l0.115-1l0.385-0.922l0.154-1l0.537-0.5l-0.27-1.77l0.463-3.076
			l0.537-0.998l-0.691-0.578l-1.73,0.309l-0.924-0.385l-1.268,0.076l-0.115,0.27l-1.193-0.307l-0.115,0.383l-3.998,0.309
			l-3.191,1.654v0.268l-2,1.115l-0.461-0.846l1.037-1.691l1.193-1.27l3.729-2.076l3.385-0.654l3.576-0.383l0.576,0.268l0.73-0.346
			l3.191,0.424l0.576-0.193c0.615-0.203,1.064-0.242,1.348-0.115l1.307,0.578l1.076-0.193l5.922,1.615l0.576-0.115l1.309,0.885
			l1.768,0.23l5.768,4.113l0.193,0.848l1,0.307l0.191,1.191l0.693,0.27l1.537,3.77v2.537l-0.27,0.115l0.23,1l-0.652,1.768
			l0.037,1.078l-0.5,0.27l-0.346,0.961l-4.344,4.807l-2.27,1.652c-0.641,0.463-1.244,0.834-1.807,1.115l-6.768,3.307l-2.961,0.885
			l-0.539-0.23l-2.307,0.539l0.885,1.268l1.268,1.078l-0.037,0.576l0.652,0.076l0.424,0.961l1.537,0.924l-0.037,0.461l1.768,1.309
			l-0.23,0.346l2.346,2.037l-0.076-0.5l2.307,1.615l-0.191,0.346l1.652,0.654l0.578,0.885l5.959,3.537l0.846,0.191l0.846,0.117
			l0.809,0.691l0.652-0.154l0.885,0.5l3.039,0.115l3.152-0.461l4.076-2.691l0.846-2.385l0.654-0.154l-0.154-0.537l0.539-0.27
			l1.461-3.385l1.115-0.422L497.852,351.324z M476.086,326.33l-0.461-0.424l-0.076-0.922l0.191-0.539l-0.652-0.385l-0.77-2.383
			l-0.809-0.924l-0.23-1l-1.23-0.922l-0.115-0.77l-4.113-2.768l-1.73-0.385l-1.615-0.115l-0.615,1.73l0.5,0.537l-0.615,0.27
			l-0.039,1.885l-0.576,0.652l-0.424,2.309l-0.73,0.461l0.193,0.615l-1.078,3.037l0.23,0.924l-0.537,0.461l-0.539,2.076
			l-0.576,0.424l0.27,0.346l-1.346,3.613l-1.039,1.654l0.461,0.307l-1.115,2.039l0.309,0.5l-0.539,1.27l0.424,0.268l0.23-0.307
			l0.73,0.615l1.422-0.193v0.348l1.463-0.078l0.461-0.5l1.115,0.27l0.115-0.307l3.268-1h1.23l0.809-0.578l0.807-0.037l1.461-0.77
			l3.615-2.961l1.652-4.115L476.086,326.33z"/>
	</g>
</g>
</svg>
